<svg xmlns="http://www.w3.org/2000/svg" viewBox="0 0 96 96" role="img" aria-labelledby="title desc">
  <title id="title">OK 手勢</title>
  <desc id="desc">拇指與食指圈起，其餘三指伸直的確認手勢。</desc>
  <rect width="96" height="96" rx="18" fill="#eef3f7"/>
  <path d="M54 19c4-1 8 2 8 7v29" fill="none" stroke="#20242a" stroke-width="7" stroke-linecap="round"/>
  <path d="M69 25c4 0 7 3 7 7v25" fill="none" stroke="#20242a" stroke-width="7" stroke-linecap="round"/>
  <path d="M39 22c4-1 8 2 8 7v22" fill="none" stroke="#20242a" stroke-width="7" stroke-linecap="round"/>
  <path d="M29 38c5-4 12-4 17 1l13 13c4 4 4 11 0 15s-11 4-15 0L31 54c-5-5-6-12-2-16z" fill="#ffffff" stroke="#f08a24" stroke-width="7" stroke-linejoin="round"/>
  <circle cx="51" cy="60" r="11" fill="#eef3f7" stroke="#20242a" stroke-width="6"/>
  <path d="M76 55v14c0 11-9 20-20 20H42c-11 0-20-9-20-20V49" fill="none" stroke="#20242a" stroke-width="7" stroke-linecap="round" stroke-linejoin="round"/>
  <path d="M23 24l8 8 17-18" fill="none" stroke="#2f9e44" stroke-width="7" stroke-linecap="round" stroke-linejoin="round"/>
</svg>
