<svg xmlns="http://www.w3.org/2000/svg" viewBox="0 0 96 96" role="img" aria-label="open palm">
  <rect width="96" height="96" rx="18" fill="#fff3e6"/>
  <path d="M28 49V25a7 7 0 0 1 14 0v18" fill="none" stroke="#20242a" stroke-width="6" stroke-linecap="round"/>
  <path d="M42 45V17a7 7 0 0 1 14 0v28" fill="none" stroke="#20242a" stroke-width="6" stroke-linecap="round"/>
  <path d="M56 47V23a7 7 0 0 1 14 0v31" fill="none" stroke="#20242a" stroke-width="6" stroke-linecap="round"/>
  <path d="M70 55V35a7 7 0 0 1 14 0v27c0 18-12 28-31 28H43c-17 0-28-10-28-27V44a7 7 0 0 1 13 0v19" fill="#ffd6a8" stroke="#20242a" stroke-width="6" stroke-linecap="round" stroke-linejoin="round"/>
  <circle cx="74" cy="23" r="5" fill="#f08a24"/>
</svg>
